<svg width="24" height="24" viewBox="0 0 24 24" fill="none" xmlns="http://www.w3.org/2000/svg">
<path fill-rule="evenodd" clip-rule="evenodd" d="M11.3974 0C9.85831 0 8.37803 0.59148 7.26271 1.65213L1.86526 6.785C0.674242 7.91763 0 9.48927 0 11.1329V18C0 21.3137 2.68629 24 6 24H18C21.3137 24 24 21.3137 24 18V11.1329C24 9.48927 23.3258 7.91763 22.1347 6.78499L16.7373 1.65213C15.622 0.591479 14.1417 0 12.6026 0H11.3974ZM7 16.5C6.29584 16.5 5.5 17.2958 5.5 18C5.5 18.7042 6.29584 19.5 7 19.5H17C17.7042 19.5 18.5 18.7042 18.5 18C18.5 17.2958 17.7042 16.5 17 16.5C17 16.5 7.70416 16.5 7 16.5Z" fill="black"/>
</svg>
