<svg width="26" height="26" viewBox="0 0 26 26" fill="none" xmlns="http://www.w3.org/2000/svg">
<path fill-rule="evenodd" clip-rule="evenodd" d="M15 7.3125C10.7543 7.3125 7.3125 10.7543 7.3125 15C7.3125 19.2457 10.7543 22.6875 15 22.6875C19.2457 22.6875 22.6875 19.2457 22.6875 15C22.6875 10.7543 19.2457 7.3125 15 7.3125ZM5.1875 15C5.1875 9.58071 9.58071 5.1875 15 5.1875C20.4193 5.1875 24.8125 9.58071 24.8125 15C24.8125 20.4193 20.4193 24.8125 15 24.8125C9.58071 24.8125 5.1875 20.4193 5.1875 15Z" fill="#848484"/>
<path fill-rule="evenodd" clip-rule="evenodd" d="M15 9.25C15.4142 9.25 15.75 9.58579 15.75 10L15.75 15C15.75 15.4142 15.4142 15.75 15 15.75C14.5858 15.75 14.25 15.4142 14.25 15L14.25 10C14.25 9.58579 14.5858 9.25 15 9.25Z" fill="#848484"/>
<path fill-rule="evenodd" clip-rule="evenodd" d="M19.5 15C19.5 15.4142 19.1642 15.75 18.75 15.75H15C14.5858 15.75 14.25 15.4142 14.25 15C14.25 14.5858 14.5858 14.25 15 14.25H18.75C19.1642 14.25 19.5 14.5858 19.5 15Z" fill="#848484"/>
</svg>
